<svg xmlns="http://www.w3.org/2000/svg" xmlns:xlink="http://www.w3.org/1999/xlink" viewBox="0 0 569.2 187.1" fill="currentColor" role="img" aria-label="Wolfson Partners">
   <path d="M505.7 83.6c-7.9 0-14.3 4.5-14.3 11.6 0 15.2 26 8.6 26 21.3 0 3.7-2.5 8.7-11.3 8.7a18 18 0 01-13.6-6.3l-2.4 2.8c3.3 4 8.7 6.9 15.9 6.9 11.7 0 15.4-6.7 15.4-12.3 0-16.3-26-10.1-26-21.3 0-4.6 4.3-8 10.1-8 4.9 0 9.3 1.7 12.4 5.5l2.5-2.7a18.6 18.6 0 00-14.7-6.2zm-311 .8v43.4h3.7v-18H211c8.3 0 13-6 13-12.8s-4.7-12.7-13-12.7zm49.4 0l-17.7 43.4h4.2L235 117h23l4.3 10.7h4.3l-17.8-43.4zm32.8 0v43.4h3.7v-18h9.5l12.2 18h4.5l-12.6-18.3c6.5-.2 12-4.6 12-12.5s-5.7-12.7-13.1-12.7zm38.8 0v3.3H330v40h3.8v-40H348v-3.3zm43.9 0v43.4h3.7V90.5l27.3 37.3h3.7V84.4h-3.7V121l-27.2-36.7zm49.5 0v43.4h27.5v-3.4h-23.8v-17.2h23.4v-3.4h-23.4v-16h23.8v-3.4zm40.7 0v43.4h3.7v-18h9.6l12.2 18h4.5l-12.6-18.3c6.5-.2 12-4.6 12-12.5s-5.7-12.7-13.1-12.7zm-251.4 3.3h12.2c5.8 0 9.6 3.9 9.6 9.3s-3.8 9.4-9.6 9.4h-12.2zm82.1 0h12.2c5.8 0 9.6 3.9 9.6 9.3s-3.8 9.4-9.6 9.4h-12.2zm173 0h12.2c5.8 0 9.6 3.9 9.6 9.3s-3.8 9.4-9.6 9.4h-12.2zm-207 .6l10.2 25.4h-20.5zm-17.2-49L220.6 70h-11.3L195 25.5h11.9l8.8 32.2 9.5-32.2h8.3l9.4 32.2 8.7-32.2h12L249.4 70h-11.3z"/>
   <use xlink:href="#B"/>
   <path d="M334.2 25.5h10.1v36h20.2V70h-30.3zm44 0h31.5v8h-22v9.8h21.6v8h-21.7V70h-9.5V25.5zm47.2 31c3.1 3.3 8 6 14.2 6 5.2 0 7.7-2.5 7.7-5 0-3.3-3.9-4.5-9-5.7-7.3-1.7-16.6-3.7-16.6-13.6 0-7.4 6.4-13.4 17-13.4 7 0 13 2 17.3 6.2l-5.3 6.9a19.2 19.2 0 00-12.8-5c-4.3 0-6.5 2-6.5 4.6 0 3 3.7 3.9 9 5 7.2 1.8 16.6 4 16.6 13.9 0 8-5.8 14.3-17.8 14.3-8.5 0-14.7-3-18.9-7.1z"/>
   <use xlink:href="#B" x="195.3"/>
   <path d="M538.8 40v30h-9.5V25.5h9.8l20.6 28.8V25.5h9.5V70H560zM73.3 60.9L0 0v126.3l73.3 60.8 73.3-60.8V0zm58.6-29.4v42L73.3 122l-25.4-21zm-117.1 0l47 39-25.4 21-21.6-17.9zm0 87.9V92.6L66 135v26.7zm65.9 42.5v-26.7l51.2-42.4v26.7z"/>
   <defs>
      <path id="B" d="M296.3 24.7c13.5 0 23.3 9.6 23.3 23s-9.8 23-23.3 23c-13.4 0-23.2-9.6-23.2-23s9.8-23 23.2-23zm0 8.4c-8.2 0-13.5 6.3-13.5 14.6s5.3 14.6 13.5 14.6S310 56 310 47.7 304.5 33 296.3 33z"/>
   </defs>
</svg>