<svg
  xmlns="http://www.w3.org/2000/svg" viewBox="0 0 305 145" fill="currentColor" aria-label="Crazy Nutrition">
  <path d="M-.4-.5v85.6c6.9-4.9 16.3-7 23.6-6.9h1.5c5.7 0 11.2.6 16.2 1.8s8.8 2.6 11.4 4.1v22H29.5v-4.4c0-2.5-.5-4.4-1.6-5.5s-2.7-1.7-5-1.7-4 .6-5.1 1.7-1.6 3-1.6 5.5v26.7c0 2.5.5 4.3 1.6 5.5s2.7 1.7 5 1.7 4-.6 5-1.7 1.7-3 1.7-5.5v-.7h-5V114h32.4v13.6h-4.6V145h6.3v-9.5h3.6l15.5-56h33l15.6 56h3.6v9.7h3v-9.7h4.6v-41h-4.6v-15h34.6v15H163v41h4.5v9.6h3.6v-9.6h4.7v-41h-4.6v-15h33l23.9 36.6V94.5h-4.4v-15h30v15H249v51h7.5v-16.8h20c0 2 .6 3.3 1.4 4.1s2.5 1.3 4.7 1.3c1.9 0 3.2-.3 4-.9s1.3-1.4 1.3-2.6c0-1-.4-1.8-1.2-2.5s-2.2-1.4-4.1-2l-7.8-2.9c-6.8-2.5-11.6-5.5-14.6-9s-4.4-8-4.4-14c0-7.2 2.3-12.7 7-16.4s12.6-5.6 23.6-5.6c5.3 0 10.3.5 15 1.6a53.9 53.9 0 014 1l-.1 19.6V23.5v20.8H273V33.7h3.2v-29h-3.2V-.5h-3.3v4l-19.7 30.2h8v-5.3h12.7v16H228V35l19.8-30.3h-6.6V10h-13l.3-10.5h-2.6v5.2h-3.2v29h3.3v10.6h-24.5V33.7h3.2v-29h-3.1l-.1-5.2h-4V9h-13c0-2-1.2-3.2-4-3.2-1.2 0-2.1.2-2.6.5s-.8 1-.8 1.7.3 1.3.9 1.8 1.6.8 3 1.3l5.6 2c4.6 1.5 8 3.5 10 6s3 5.7 3 9.6c0 5.5-1.7 9.6-5.4 12.4s-9 4.2-16.1 4.2a61.6 61.6 0 01-20.2-3.5V29H172c0 1.3.3 2.3.9 3s1.7.8 3.3.8c1.3 0 2.3-.2 2.8-.6s1-1 1-1.9c0-.7-.4-1.3-1-1.7s-1.4-1-2.8-1.6l-5.6-1.9c-4.7-1.8-8.1-4-10.2-6.4s-3.1-5.7-3.1-9.9c0-3.7.9-6.8 2.7-9.3h-30c4.4 4.2 6.5 10.7 6.5 19.7 0 9.1-2.1 15.7-6.4 19.8s-10.3 6.2-18.2 6.2-14-2-18.2-6.2-6.4-10.7-6.4-19.8c0-9 2-15.6 6.4-19.7H80.4a15 15 0 012.5 9.2c0 2.8-.6 5.3-1.7 7.4s-2.8 3.6-5 4.4v.7c4.2.6 6.3 3.1 6.3 7.5v5h3v10.6H65V29c0-1.6-.3-3-.7-3.8S63 23.8 62 23.5s-2.5-.5-4.4-.5v10.6h4.2v10.6H36.3V33.7h3.3v-29h-3.2l-.1-5.2h-5c1.9 2.4 2.8 5.6 2.8 9.8 0 5.3-1.4 9.2-4.3 11.6s-7.2 3.5-12.7 3.5h-7v9.3h6v10.6H-.3zm305.8 101h-11c0-3-2-4.7-5.6-4.7-1.8 0-3.1.2-4 .7s-1 1.2-1 2.4c0 1 .4 1.8 1.3 2.5s2.3 1.2 4.3 2l8 2.6a43 43 0 018 3.6v-9.2zm0-101v14.1zm0 14.1H302V4.7H294V15h5.7v7.3H294v11.5h7.8V23.5h3.6zM10.2 4.7v10.6h2c2.6 0 3.9-1.4 3.9-4V8.8c0-1.5-.3-2.5-1-3.2s-1.5-1-2.8-1zm47.5 0v10.6H61c1.3 0 2.2-.3 2.8-1s1-1.7 1-3V8.8c0-1.5-.3-2.5-1-3.2s-1.5-1-2.8-1zm54.4 0c-1.5 0-2.5.5-3.3 1.2s-1 2-1 3.6V29c0 1.6.3 3 1 3.6s1.8 1.1 3.3 1.1 2.6-.4 3.3-1 1-2 1-3.7V9.5c0-1.6-.3-2.8-1-3.6s-1.8-1-3.3-1zm61 43.5h9.3V68h1.5v5.2h-9V71c-.4.7-1.1 1.3-2 2s-1.7.7-3 .7c-2 0-3.7-.8-4.8-2.5s-1.6-4-1.6-7 .5-5.2 1.6-6.9 2.8-2.4 5-2.4c1 0 2 .3 2.9.8a5.9 5.9 0 012 1.8v-4h-2zM10.6 50.3h21l-32 23v-15zm33.4 0h17l35 25H75L52.7 59.4 30 75.4H9zm29.7 0h20.8L117 66.5v9h-8.5zm32.9 0H117v7.5zm81 0H198L187.6 58zm22.6 0H231l-35 25h-8.4v-8.8zm33.3 0h17l35 25h-20.8l-22.6-16-22.6 16h-21zm29.7 0H294l11.3 8.2v15zm-117.4 4.5v.2c1.8 0 3 .6 4 1.7s1.3 2.6 1.3 4.6V68h1.5v5.2h-10.2V68h1.3v-5.3c0-.7-.1-1.2-.4-1.6s-.8-.5-1.4-.5c-1.2 0-2 .7-2 2V68h1.5v5.2h-10.2V68h1.4v-7.4h-1.4v-5.3h8.8v2.5a7 7 0 015.8-3zm-26 .2c3.2 0 5.5.6 6.9 1.7s2 3 2 5.4v6h1.5v5.2h-8.6v-2c-.5.5-1.2 1.2-2 1.7s-2 .8-3.1.8c-1.6 0-3-.4-3.8-1.3s-1.4-2-1.4-3.6c0-4 3.4-6.2 10.3-6.3 0-.7-.3-1.2-.8-1.5s-1.3-.4-2.5-.4l-3.1.3-3 1v-6a34.1 34.1 0 013.6-.7zm43.3 5.7c-.6 0-1.1.2-1.4.5s-.5 1-.5 1.6V66c0 .7.2 1.2.5 1.6s.8.5 1.4.5 1-.2 1.4-.5.4-.9.4-1.6v-3.2c0-.7-.1-1.3-.4-1.6s-.8-.5-1.4-.5zm-41.5 5c-1 0-1.7.1-2.3.4s-.7.7-.7 1.3c0 .3 0 .6.3 1s.5.2 1 .2a1.4 1.4 0 001.2-.7c.3-.5.5-1 .5-2zm-79 2.3L63 75.5H42.2zM252 68l10.4 7.5h-20.8zM91.9 100.5l-7.6 35h5.5v9.5h4.4v-9.5h5.4c-2.2-11.7-5-23.3-7.7-35zm104.8 9v26h4.4v9.6l19 .2z"/>
</svg>