<?xml version="1.0" standalone="no"?>
<!DOCTYPE svg PUBLIC "-//W3C//DTD SVG 20010904//EN"
 "http://www.w3.org/TR/2001/REC-SVG-20010904/DTD/svg10.dtd">
<svg version="1.0" xmlns="http://www.w3.org/2000/svg"
 width="500.000000pt" height="500.000000pt" viewBox="0 0 500.000000 500.000000"
 preserveAspectRatio="xMidYMid meet">
<metadata>
Created by potrace 1.11, written by Peter Selinger 2001-2013
</metadata>
<g transform="translate(0.000000,500.000000) scale(0.100000,-0.100000)"
fill="#000000" stroke="none">
<path d="M0 4743 c0 -141 2 -254 4 -252 12 15 347 441 370 472 l28 37 -201 0
-201 0 0 -257z"/>
<path d="M437 4445 l-437 -554 2 -519 3 -519 194 247 c107 136 195 251 195
256 1 5 286 371 635 814 348 443 638 811 644 818 7 9 -73 12 -394 12 l-404 0
-438 -555z"/>
<path d="M2089 4944 c-9 -42 -27 -75 -64 -123 -28 -36 -289 -367 -580 -736
-290 -368 -557 -706 -591 -750 -35 -44 -241 -306 -459 -582 l-395 -502 2 -519
3 -519 195 248 c107 136 195 251 195 256 0 9 1353 1725 1386 1758 10 10 -158
-804 -169 -818 -62 -78 -756 -957 -790 -1002 -26 -33 -221 -281 -434 -552
l-388 -492 0 -305 0 -306 164 0 164 0 548 695 c301 382 551 695 556 695 4 0 8
-5 8 -11 0 -6 18 -37 41 -69 44 -63 138 -136 188 -146 17 -4 34 -10 37 -15 2
-4 -105 -147 -239 -316 -133 -169 -336 -426 -450 -570 l-207 -263 408 0 408 0
125 157 124 158 6 -65 c7 -78 35 -185 57 -222 l16 -28 542 0 543 0 18 27 c19
27 61 195 66 259 2 29 10 21 126 -127 l125 -159 404 0 c322 0 402 3 394 13
-13 17 -873 1109 -884 1124 -7 8 3 15 34 23 63 18 151 84 197 150 23 32 41 63
41 69 0 6 4 11 8 11 5 0 255 -313 556 -695 l548 -695 164 0 164 0 -1 308 0
307 -444 560 c-245 308 -609 768 -810 1022 l-365 461 -84 412 c-46 226 -80
408 -76 403 39 -39 1385 -1747 1385 -1756 0 -5 88 -120 195 -257 l195 -248 3
519 2 520 -445 562 c-1674 2116 -1623 2050 -1641 2121 l-16 66 -398 0 -399 0
-12 -56z m749 -1737 c183 -897 332 -1638 332 -1644 0 -10 -55 -13 -240 -13
l-240 0 0 -655 0 -655 -190 0 -190 0 0 655 0 655 -240 0 c-185 0 -240 3 -240
13 0 23 665 3277 670 3277 3 0 155 -735 338 -1633z"/>
<path d="M3327 4988 c6 -7 296 -376 646 -821 350 -444 635 -810 634 -813 -1
-3 86 -117 193 -254 l195 -248 3 520 2 519 -437 554 -438 555 -404 0 c-321 0
-401 -3 -394 -12z"/>
<path d="M4626 4963 c38 -51 321 -411 351 -446 l23 -29 0 256 0 256 -201 0
-201 0 28 -37z"/>
</g>
</svg>
