<svg
  xmlns="http://www.w3.org/2000/svg" viewBox="0 0 179.5 179.2" role="img" aria-label="Blogger">
  <path d="M89.3 0C56 0 22.7.2 21.3.5A27 27 0 00.6 20.3L0 89.7c0 65.6 0 66.7.8 69.4.7 2.7 2.4 6.6 4 8.8a28.3 28.3 0 0015.7 10.6l69 .7c65.3 0 66.3 0 69.2-.7a26.8 26.8 0 0020.5-23l.3-68.3c-.2-72.8.1-66-3-72.2a26.8 26.8 0 00-19-14.6c-1.6-.3-35-.4-68.2-.4zm-12 34l5.8.1c11 .2 14.3.3 15.7.7A37.8 37.8 0 01115.1 45a32 32 0 0110.1 22.7c0 4.2.7 5.8 3.2 7.3 1.6.9 2.2 1 7.2 1.2 3 .2 5.7.5 6.1.7 1.5.8 2.7 2.6 3.1 4.6.3 1.4.4 6.8.3 18.4-.1 15.3-.2 16.6-.9 19.2-1.8 6.3-4.4 11-8.7 15.4-6 6.1-12.3 9.3-20.3 10.4-4.7.7-50 .5-53.6-.2a34.4 34.4 0 01-26-23.4c-1.5-5-1.7-8.6-1.5-33.8.1-20.1.2-23.6.7-25.8a35.4 35.4 0 0121.4-25c5.2-2 8.7-2.6 21-2.5zm2.2 29.6c-12 0-12.6 0-14.6 2-3 3-1.4 9 2.7 10.1.8.2 6 .4 12.6.3 10.6 0 11.3 0 12.5-.8 2-1.3 3-3 3-5.4 0-2.6-1-4.2-3.3-5.4-1.6-.8-2-.8-12.9-.8zm10 39.9c-21.6 0-22.4 0-24.1 1.7a7 7 0 00-2 5.5 7 7 0 003.7 4.8c.8.4 5.6.7 22.5.5l19.2-.2 3.7-.6c3.6-2 4.2-7 1.2-9.8-2-2-2-2-24.2-1.9z"/>
</svg>