<svg
  xmlns="http://www.w3.org/2000/svg" viewBox="0 0 146.8 120.6">
  <path d="M50.4 105.2v-6a3.5 3.5 0 00-3.8-3.8 3.7 3.7 0 00-3.3 1.7 3.5 3.5 0 00-3.2-1.7 3.2 3.2 0 00-2.8 1.5v-1.2h-2v9.6h2V100a2.2 2.2 0 012.4-2.6c1.4 0 2 1 2 2.5v5.3H44V100a2.3 2.3 0 012.3-2.5c1.4 0 2.1.9 2.1 2.5v5.3zm11.7-4.7v-4.8H60v1.2a3.6 3.6 0 00-3-1.4 5 5 0 100 10 3.6 3.6 0 003-1.4v1.1h2zm-7.7 0a2.9 2.9 0 015.7.2 2.9 2.9 0 01-2.8 2.8 2.9 2.9 0 01-3-3zm52.1-5a5.4 5.4 0 012 .3 5 5 0 011.7 1.1 4.8 4.8 0 011 1.6 5.3 5.3 0 010 4 4.8 4.8 0 01-1 1.6 5 5 0 01-1.7 1 5.7 5.7 0 01-4 0 5 5 0 01-1.7-1 4.9 4.9 0 01-1-1.6 5.3 5.3 0 010-4 4.9 4.9 0 011-1.6 5 5 0 011.6-1 5.4 5.4 0 012.1-.5zm0 2a3.1 3.1 0 00-1.2.2 2.8 2.8 0 00-.9.6 3 3 0 00-.6 1 3.5 3.5 0 000 2.5 3 3 0 00.6 1 2.8 2.8 0 001 .6 3.3 3.3 0 002.3 0 2.9 2.9 0 001-.6 2.9 2.9 0 00.6-1 3.5 3.5 0 000-2.5 2.9 2.9 0 00-.6-1 2.9 2.9 0 00-1-.6 3.1 3.1 0 00-1.2-.3zm-33.1 3c0-3-1.9-5-4.5-5a5 5 0 10.1 10 5.8 5.8 0 004-1.4l-1-1.5a4.5 4.5 0 01-2.9 1 2.6 2.6 0 01-2.8-2.4h7l.1-.7zm-7.1-.9a2.5 2.5 0 012.5-2.3 2.4 2.4 0 012.4 2.3zm15.9-1.5a6.2 6.2 0 00-3-.8c-1.2 0-1.9.4-1.9 1.1s.8.9 1.7 1l1 .1c2 .3 3.3 1.2 3.3 2.9s-1.6 3-4.3 3a6.9 6.9 0 01-4.2-1.1l1-1.7a5 5 0 003.2 1c1.4 0 2.2-.4 2.2-1.1 0-.6-.6-.9-1.7-1l-1-.2c-2.1-.3-3.3-1.2-3.3-2.8 0-1.9 1.6-3 4-3a7.1 7.1 0 013.9 1zm10-.5h-3.4v4.3c0 1 .3 1.6 1.3 1.6a3.8 3.8 0 001.9-.6l.6 1.8a4.9 4.9 0 01-2.6.8c-2.5 0-3.3-1.4-3.3-3.6v-4.3h-2v-1.9h2v-2.9h2v2.9h3.4zm7.2-2.2a4.4 4.4 0 011.4.3l-.6 2a3.4 3.4 0 00-1.3-.2c-1.4 0-2 .8-2 2.4v5.4h-2.1v-9.6h2V97a2.8 2.8 0 012.6-1.4zm14.3 8.4a1 1 0 01.7.3 1 1 0 01.2.3 1 1 0 010 .8 1 1 0 01-.5.5 1 1 0 01-.4 0 1 1 0 01-.9-.5 1 1 0 010-.8 1 1 0 01.6-.5 1 1 0 01.3 0zm0 1.7a.7.7 0 00.3 0 .8.8 0 00.3-.2.7.7 0 00-.3-1.2.7.7 0 00-.3 0 .8.8 0 00-.3 0 .7.7 0 00-.2.2.7.7 0 000 1 .7.7 0 00.5.2zm.1-1.2a.4.4 0 01.3.1.3.3 0 010 .2.2.2 0 010 .2.3.3 0 01-.2.1l.3.3h-.3l-.2-.3h-.1v.3h-.2v-.9zm-.2.2v.3h.2a.2.2 0 00.1 0 .1.1 0 000-.1.1.1 0 000-.1.2.2 0 00-.1 0z"/>
  <path d="M57.6 22.8h31.5v56.6H57.6z" fill="#7673c0"/>
  <path d="M59.6 51.1a36 36 0 0113.8-28.3 36 36 0 100 56.6 36 36 0 01-13.8-28.3z" fill="#eb001b"/>
  <path d="M128.2 73.4v-1h.5V72h-1.2v.2h.4v1.2zm2.3 0V72h-.4l-.4 1-.4-1h-.4v1.4h.3v-1l.4.9h.3l.4-.9v1zm1.1-22.3a36 36 0 01-58.2 28.3 36 36 0 000-56.6 36 36 0 0158.2 28.3z" fill="#00a1df"/>
</svg>